<svg width="216" height="305" viewBox="0 0 216 305" fill="none" xmlns="http://www.w3.org/2000/svg">
<path d="M107.868 305L19.6577 280.503L0 59.9398H216L196.322 280.469L107.868 305Z" fill="#264DE4"/>
<path d="M179.475 266.426L196.291 77.9736H108V286.249L179.475 266.426Z" fill="#2965F1"/>
<path d="M45.0645 159.778L47.4877 186.829H108V159.778H45.0645ZM40.1943 105.026L42.6522 132.077H108V105.026H40.1943ZM108 230.032L107.882 230.064L77.7663 221.929L75.8409 200.355H48.6959L52.484 242.829L107.876 258.211L108 258.177V230.032Z" fill="#EBEBEB"/>
<path d="M50.8347 0H83.5848V13.7013H64.5308V27.4026H83.5865V41.1031H50.8347V0ZM90.1356 0H122.887V11.9141H103.832V14.2968H122.887V41.6994H90.1365V29.1881H109.191V26.8055H90.1348L90.1356 0ZM129.437 0H162.188V11.9141H143.134V14.2968H162.188V41.6994H129.437V29.1881H148.492V26.8055H129.438V0H129.437Z" fill="white"/>
<path d="M170.763 159.778L175.644 105.026H107.907V132.077H146.01L143.549 159.778H107.907V186.829H141.205L138.065 221.912L107.906 230.055V258.198L163.342 242.829L163.748 238.259L170.103 167.042L170.763 159.778Z" fill="white"/>
</svg>
