<svg width="400" height="400" viewBox="0 0 400 400" fill="none" xmlns="http://www.w3.org/2000/svg">
<path d="M200 0C89.5 0 0 91.7638 0 205.059C0 295.797 57.25 372.438 136.75 399.608C146.75 401.403 150.5 395.251 150.5 389.868C150.5 384.998 150.25 368.849 150.25 351.676C100 361.16 87 339.116 83 327.581C80.75 321.686 71 303.487 62.5 298.617C55.5 294.772 45.5 285.288 62.25 285.032C78 284.775 89.25 299.898 93 306.05C111 337.065 139.75 328.35 151.25 322.968C153 309.639 158.25 300.667 164 295.541C119.5 290.414 73 272.728 73 194.293C73 171.993 80.75 153.538 93.5 139.184C91.5 134.057 84.5 113.039 95.5 84.8431C95.5 84.8431 112.25 79.4603 150.5 105.862C166.5 101.248 183.5 98.9408 200.5 98.9408C217.5 98.9408 234.5 101.248 250.5 105.862C288.75 79.204 305.5 84.8431 305.5 84.8431C316.5 113.039 309.5 134.057 307.5 139.184C320.25 153.538 328 171.737 328 194.293C328 272.984 281.25 290.414 236.75 295.541C244 301.949 250.25 314.253 250.25 333.477C250.25 360.903 250 382.947 250 389.868C250 395.251 253.75 401.659 263.75 399.608C303.46 385.876 337.967 359.716 362.41 324.814C386.853 289.912 400.001 248.027 400 205.059C400 91.7638 310.5 0 200 0Z" fill="#5DF3E4"/>
</svg>
