<svg width="222" height="312" viewBox="0 0 222 312" fill="none" xmlns="http://www.w3.org/2000/svg">
<path d="M222 61.3154L201.775 286.906L110.864 312L20.2037 286.94L0 61.3154H222Z" fill="#E44D26"/>
<path d="M111 292.819L184.461 272.541L201.743 79.7633H111V292.819Z" fill="#F16529"/>
<path d="M71.6838 135.108H111V107.436H41.3108L41.9756 114.86L48.8068 191.117H111V163.445H74.224L71.6838 135.108ZM77.9476 204.953H50.0486L53.9419 248.402L110.872 264.137L111 264.102V235.312L110.878 235.344L79.9265 227.023L77.9476 204.953Z" fill="#EBEBEB"/>
<path d="M20.6545 0H34.778V13.8936H47.6981V0H61.8225V42.0733H47.699V27.9848H34.7789V42.0733H20.6553L20.6545 0ZM80.3946 13.9525H67.9627V0H106.96V13.9525H94.5208V42.0733H80.3972V13.9525H80.3946ZM113.149 0H127.876L136.935 14.7835L145.985 0H160.718V42.0733H146.652V21.2195L136.935 36.1788H136.691L126.968 21.2195V42.0733H113.149V0ZM167.747 0H181.874V28.1667H201.736V42.0733H167.746V0H167.747Z" fill="white"/>
<path d="M110.904 191.117H145.127L141.9 227.005L110.903 235.335V264.124L167.879 248.402L168.297 243.727L174.828 170.875L175.506 163.445H110.904V191.117ZM110.904 135.041V135.108H178.035L178.592 128.889L179.859 114.86L180.523 107.436H110.904V135.041Z" fill="white"/>
</svg>
