<svg width="236" height="231" viewBox="0 0 236 231" fill="none" xmlns="http://www.w3.org/2000/svg">
<path d="M217.333 178.779C204.458 178.429 194.626 179.625 186.219 183.16C183.831 184.166 180.019 184.194 179.629 187.179C180.942 188.551 181.147 190.602 182.19 192.29C184.197 195.528 187.585 199.874 190.609 202.15C193.915 204.64 197.32 207.299 200.862 209.453C207.162 213.285 214.195 215.475 220.26 219.313C223.836 221.578 227.387 224.429 230.875 226.982C232.601 228.245 233.758 230.208 236 231V230.637C234.822 229.14 234.518 227.084 233.437 225.522L228.678 220.773C224.025 214.612 218.118 209.199 211.839 204.705C206.831 201.119 195.626 196.275 193.538 190.464L193.172 190.099C196.721 189.698 200.877 188.418 204.154 187.54C209.659 186.069 214.578 186.449 220.26 184.985L227.946 182.794V181.334C225.074 178.393 223.025 174.5 219.894 171.839C211.696 164.876 202.751 157.919 193.54 152.117C188.429 148.902 182.117 146.811 176.7 144.084C174.879 143.165 171.678 142.688 170.476 141.16C167.63 137.544 166.082 132.959 163.889 128.746C159.295 119.917 154.783 110.276 150.712 100.987C147.935 94.6535 146.121 88.4096 142.658 82.7273C126.036 55.4628 108.146 39.0091 80.4317 22.8342C74.5335 19.3941 67.4327 18.0372 59.9286 16.2591C55.9045 16.0177 51.8766 15.7725 47.8507 15.5273C45.3912 14.5054 42.836 11.5051 40.5304 10.0489C31.3491 4.26177 7.79733 -8.32513 0.998585 8.22407C-3.29566 18.6698 7.4165 28.8591 11.2455 34.154C13.9357 37.8636 17.3782 42.0281 19.2993 46.2037C20.5637 48.9495 20.7814 51.7027 21.8638 54.6056C24.5222 61.7591 26.8391 69.5414 30.2816 76.1503C32.0207 79.4968 33.938 83.0193 36.1386 86.0102C37.4856 87.8463 39.7987 88.6548 40.1627 91.4885C37.9039 94.6441 37.7745 99.5441 36.5044 103.542C30.7825 121.538 32.9418 143.908 41.2639 157.227C43.8153 161.318 49.8318 170.087 58.1013 166.722C65.3353 163.783 63.72 154.672 65.7893 146.635C66.2564 144.814 65.9694 143.474 66.8868 142.253V142.618L73.4773 155.765C78.355 163.602 87.0072 171.79 94.3425 177.315C98.1453 180.181 101.139 185.133 106.056 186.81V186.443H105.691C104.738 184.963 103.246 184.349 102.031 183.159C99.1658 180.357 95.9803 176.874 93.6128 173.664C86.9416 164.629 81.0471 154.741 75.676 144.449C73.1096 139.532 70.879 134.112 68.7178 129.109C67.8848 127.181 67.8961 124.263 66.1589 123.266C63.7895 126.93 60.3019 129.895 58.4709 134.222C55.5424 141.14 55.1653 149.577 54.0791 158.325C53.4375 158.554 53.7226 158.397 53.3456 158.688C48.2465 157.463 46.4568 152.228 44.5601 147.734C39.7687 136.373 38.8776 118.083 43.0949 105.006C44.1868 101.62 49.117 90.9663 47.1209 87.8388C46.1679 84.7206 43.0236 82.9163 41.2658 80.5337C39.0877 77.5877 36.9153 73.7096 35.405 70.307C31.4841 61.4521 29.6531 51.508 25.524 42.554C23.5485 38.2735 20.2111 33.9406 17.4702 30.1374C14.4366 25.9206 11.0372 22.8155 8.6847 17.719C7.84799 15.9072 6.71299 13.0062 7.95117 11.1439C8.34514 9.88797 8.90419 9.36391 10.148 8.95402C12.2717 7.32006 18.1849 9.4968 20.3949 10.412C26.265 12.8452 31.1652 15.1623 36.1386 18.4489C38.523 20.0286 40.9394 23.0813 43.8247 23.9273H47.119C52.2725 25.1083 58.045 24.2923 62.8608 25.7521C71.3705 28.3313 78.9966 32.346 85.921 36.7088C107.019 50.0013 124.271 68.9201 136.071 91.4904C137.97 95.1251 138.791 98.5914 140.463 102.447C143.836 110.22 148.085 118.218 151.442 125.82C154.792 133.404 158.056 141.057 162.792 147.369C165.281 150.685 174.894 152.465 179.265 154.309C182.327 155.598 187.345 156.946 190.247 158.688C195.787 162.024 201.156 165.994 206.355 169.647C208.949 171.472 216.936 175.479 217.333 178.779ZM53.7076 39.638C51.023 39.5874 49.1245 39.93 47.1171 40.366V40.731H47.483C48.7643 43.3551 51.0249 45.0471 52.6064 47.3062C53.8258 49.8647 55.0471 52.4195 56.2684 54.9743L56.6324 54.6131C58.9005 53.0166 59.9379 50.4693 59.9248 46.5762C59.0168 45.6235 58.8836 44.4294 58.0957 43.2914C57.0526 41.7735 55.0284 40.9107 53.7076 39.638Z" fill="#00618A"/>
</svg>
