<svg width="225" height="224" viewBox="0 0 225 224" fill="none" xmlns="http://www.w3.org/2000/svg">
<path d="M111.788 0C54.6185 0 58.1881 24.737 58.1881 24.737L58.2516 50.3652H112.808V58.0595H36.5828C36.5828 58.0595 0 53.9198 0 111.475C0 169.032 31.9304 166.991 31.9304 166.991H50.9864V140.282C50.9864 140.282 49.959 108.423 82.4071 108.423H136.517C136.517 108.423 166.917 108.913 166.917 79.1073V29.8251C166.917 29.8251 171.534 0 111.788 0ZM81.706 17.2345C82.9952 17.2333 84.272 17.4858 85.4633 17.9776C86.6546 18.4693 87.737 19.1906 88.6486 20.1001C89.5602 21.0097 90.283 22.0897 90.7759 23.2783C91.2687 24.467 91.5218 25.7409 91.5206 27.0272C91.5218 28.3135 91.2687 29.5875 90.7759 30.7761C90.283 31.9647 89.5602 33.0447 88.6486 33.9543C87.737 34.8639 86.6546 35.5852 85.4633 36.0769C84.272 36.5686 82.9952 36.8211 81.706 36.8199C80.4168 36.8211 79.1401 36.5686 77.9488 36.0769C76.7575 35.5852 75.6751 34.8639 74.7635 33.9543C73.8519 33.0447 73.129 31.9647 72.6362 30.7761C72.1434 29.5875 71.8903 28.3135 71.8915 27.0272C71.8903 25.7409 72.1434 24.467 72.6362 23.2783C73.129 22.0897 73.8519 21.0097 74.7635 20.1001C75.6751 19.1906 76.7575 18.4693 77.9488 17.9776C79.1401 17.4858 80.4168 17.2333 81.706 17.2345Z" fill="url(#paint0_linear_27_13)"/>
<path d="M113.213 224C170.382 224 166.813 199.263 166.813 199.263L166.749 173.636H112.192V165.941H188.417C188.417 165.941 225 170.081 225 112.524C225 54.9677 193.07 57.009 193.07 57.009H174.014V83.7168C174.014 83.7168 175.041 115.576 142.593 115.576H88.4832C88.4832 115.576 58.0827 115.086 58.0827 144.893V194.176C58.0827 194.176 53.4664 224 113.212 224H113.213ZM143.295 206.767C142.006 206.768 140.729 206.516 139.538 206.024C138.346 205.532 137.264 204.811 136.352 203.902C135.441 202.992 134.718 201.912 134.225 200.723C133.732 199.535 133.479 198.261 133.48 196.975C133.479 195.688 133.732 194.414 134.225 193.225C134.718 192.037 135.44 190.957 136.352 190.047C137.264 189.137 138.346 188.416 139.537 187.924C140.729 187.432 142.006 187.18 143.295 187.181C144.584 187.18 145.861 187.432 147.052 187.924C148.243 188.416 149.326 189.137 150.237 190.047C151.149 190.956 151.872 192.036 152.365 193.225C152.858 194.413 153.111 195.687 153.109 196.974C153.111 198.26 152.858 199.534 152.365 200.723C151.872 201.911 151.149 202.991 150.237 203.901C149.326 204.81 148.243 205.532 147.052 206.023C145.861 206.515 144.584 206.768 143.295 206.767Z" fill="url(#paint1_linear_27_13)"/>
<defs>
<linearGradient id="paint0_linear_27_13" x1="2164.15" y1="2010.51" x2="13299.7" y2="13059.6" gradientUnits="userSpaceOnUse">
<stop stop-color="#387EB8"/>
<stop offset="1" stop-color="#366994"/>
</linearGradient>
<linearGradient id="paint1_linear_27_13" x1="3252.38" y1="3493.69" x2="15211.9" y2="14824.6" gradientUnits="userSpaceOnUse">
<stop stop-color="#FFE052"/>
<stop offset="1" stop-color="#FFC331"/>
</linearGradient>
</defs>
</svg>
